<svg width="181" height="25" viewBox="0 0 181 25" fill="none" xmlns="http://www.w3.org/2000/svg">
<path d="M17.6 1.74V24H13.13V22.14C11.97 23.54 10.29 24.24 8.09 24.24C6.57 24.24 5.19 23.9 3.95 23.22C2.73 22.54 1.77 21.57 1.07 20.31C0.37 19.05 0.0200001 17.59 0.0200001 15.93C0.0200001 14.27 0.37 12.81 1.07 11.55C1.77 10.29 2.73 9.32 3.95 8.64C5.19 7.96 6.57 7.62 8.09 7.62C10.15 7.62 11.76 8.27 12.92 9.57V1.74H17.6ZM8.9 20.4C10.08 20.4 11.06 20 11.84 19.2C12.62 18.38 13.01 17.29 13.01 15.93C13.01 14.57 12.62 13.49 11.84 12.69C11.06 11.87 10.08 11.46 8.9 11.46C7.7 11.46 6.71 11.87 5.93 12.69C5.15 13.49 4.76 14.57 4.76 15.93C4.76 17.29 5.15 18.38 5.93 19.2C6.71 20 7.7 20.4 8.9 20.4ZM37.7415 15.99C37.7415 16.05 37.7115 16.47 37.6515 17.25H25.4415C25.6615 18.25 26.1815 19.04 27.0015 19.62C27.8215 20.2 28.8415 20.49 30.0615 20.49C30.9015 20.49 31.6415 20.37 32.2815 20.13C32.9415 19.87 33.5515 19.47 34.1115 18.93L36.6015 21.63C35.0815 23.37 32.8615 24.24 29.9415 24.24C28.1215 24.24 26.5115 23.89 25.1115 23.19C23.7115 22.47 22.6315 21.48 21.8715 20.22C21.1115 18.96 20.7315 17.53 20.7315 15.93C20.7315 14.35 21.1015 12.93 21.8415 11.67C22.6015 10.39 23.6315 9.4 24.9315 8.7C26.2515 7.98 27.7215 7.62 29.3415 7.62C30.9215 7.62 32.3515 7.96 33.6315 8.64C34.9115 9.32 35.9115 10.3 36.6315 11.58C37.3715 12.84 37.7415 14.31 37.7415 15.99ZM29.3715 11.16C28.3115 11.16 27.4215 11.46 26.7015 12.06C25.9815 12.66 25.5415 13.48 25.3815 14.52H33.3315C33.1715 13.5 32.7315 12.69 32.0115 12.09C31.2915 11.47 30.4115 11.16 29.3715 11.16ZM56.5843 7.86L49.7743 24H44.9443L38.1643 7.86H42.9943L47.4643 18.84L52.0843 7.86H56.5843ZM58.494 7.86H63.174V24H58.494V7.86ZM60.834 5.61C59.974 5.61 59.274 5.36 58.734 4.86C58.194 4.36 57.924 3.74 57.924 3C57.924 2.26 58.194 1.64 58.734 1.14C59.274 0.639999 59.974 0.389998 60.834 0.389998C61.694 0.389998 62.394 0.629999 62.934 1.11C63.474 1.59 63.744 2.19 63.744 2.91C63.744 3.69 63.474 4.34 62.934 4.86C62.394 5.36 61.694 5.61 60.834 5.61ZM75.3174 24.24C73.5974 24.24 72.0474 23.89 70.6674 23.19C69.3074 22.47 68.2374 21.48 67.4574 20.22C66.6974 18.96 66.3174 17.53 66.3174 15.93C66.3174 14.33 66.6974 12.9 67.4574 11.64C68.2374 10.38 69.3074 9.4 70.6674 8.7C72.0474 7.98 73.5974 7.62 75.3174 7.62C77.0174 7.62 78.4974 7.98 79.7574 8.7C81.0374 9.4 81.9674 10.41 82.5474 11.73L78.9174 13.68C78.0774 12.2 76.8674 11.46 75.2874 11.46C74.0674 11.46 73.0574 11.86 72.2574 12.66C71.4574 13.46 71.0574 14.55 71.0574 15.93C71.0574 17.31 71.4574 18.4 72.2574 19.2C73.0574 20 74.0674 20.4 75.2874 20.4C76.8874 20.4 78.0974 19.66 78.9174 18.18L82.5474 20.16C81.9674 21.44 81.0374 22.44 79.7574 23.16C78.4974 23.88 77.0174 24.24 75.3174 24.24ZM100.847 15.99C100.847 16.05 100.817 16.47 100.757 17.25H88.547C88.767 18.25 89.287 19.04 90.107 19.62C90.927 20.2 91.947 20.49 93.167 20.49C94.007 20.49 94.747 20.37 95.387 20.13C96.047 19.87 96.657 19.47 97.217 18.93L99.707 21.63C98.187 23.37 95.967 24.24 93.047 24.24C91.227 24.24 89.617 23.89 88.217 23.19C86.817 22.47 85.737 21.48 84.977 20.22C84.217 18.96 83.837 17.53 83.837 15.93C83.837 14.35 84.207 12.93 84.947 11.67C85.707 10.39 86.737 9.4 88.037 8.7C89.357 7.98 90.827 7.62 92.447 7.62C94.027 7.62 95.457 7.96 96.737 8.64C98.017 9.32 99.017 10.3 99.737 11.58C100.477 12.84 100.847 14.31 100.847 15.99ZM92.477 11.16C91.417 11.16 90.527 11.46 89.807 12.06C89.087 12.66 88.647 13.48 88.487 14.52H96.437C96.277 13.5 95.837 12.69 95.117 12.09C94.397 11.47 93.517 11.16 92.477 11.16Z" fill="#91BD88"/>
<path d="M109.393 24.24C108.053 24.24 106.743 24.08 105.463 23.76C104.183 23.42 103.163 23 102.403 22.5L103.963 19.14C104.683 19.6 105.553 19.98 106.573 20.28C107.593 20.56 108.593 20.7 109.573 20.7C111.553 20.7 112.543 20.21 112.543 19.23C112.543 18.77 112.273 18.44 111.733 18.24C111.193 18.04 110.363 17.87 109.243 17.73C107.923 17.53 106.833 17.3 105.973 17.04C105.113 16.78 104.363 16.32 103.723 15.66C103.103 15 102.793 14.06 102.793 12.84C102.793 11.82 103.083 10.92 103.663 10.14C104.263 9.34 105.123 8.72 106.243 8.28C107.383 7.84 108.723 7.62 110.263 7.62C111.403 7.62 112.533 7.75 113.653 8.01C114.793 8.25 115.733 8.59 116.473 9.03L114.913 12.36C113.493 11.56 111.943 11.16 110.263 11.16C109.263 11.16 108.513 11.3 108.013 11.58C107.513 11.86 107.263 12.22 107.263 12.66C107.263 13.16 107.533 13.51 108.073 13.71C108.613 13.91 109.473 14.1 110.653 14.28C111.973 14.5 113.053 14.74 113.893 15C114.733 15.24 115.463 15.69 116.083 16.35C116.703 17.01 117.013 17.93 117.013 19.11C117.013 20.11 116.713 21 116.113 21.78C115.513 22.56 114.633 23.17 113.473 23.61C112.333 24.03 110.973 24.24 109.393 24.24ZM130.31 23.22C129.85 23.56 129.28 23.82 128.6 24C127.94 24.16 127.24 24.24 126.5 24.24C124.58 24.24 123.09 23.75 122.03 22.77C120.99 21.79 120.47 20.35 120.47 18.45V11.82H117.98V8.22H120.47V4.29H125.15V8.22H129.17V11.82H125.15V18.39C125.15 19.07 125.32 19.6 125.66 19.98C126.02 20.34 126.52 20.52 127.16 20.52C127.9 20.52 128.53 20.32 129.05 19.92L130.31 23.22ZM140.119 24.24C138.419 24.24 136.889 23.89 135.529 23.19C134.189 22.47 133.139 21.48 132.379 20.22C131.619 18.96 131.239 17.53 131.239 15.93C131.239 14.33 131.619 12.9 132.379 11.64C133.139 10.38 134.189 9.4 135.529 8.7C136.889 7.98 138.419 7.62 140.119 7.62C141.819 7.62 143.339 7.98 144.679 8.7C146.019 9.4 147.069 10.38 147.829 11.64C148.589 12.9 148.969 14.33 148.969 15.93C148.969 17.53 148.589 18.96 147.829 20.22C147.069 21.48 146.019 22.47 144.679 23.19C143.339 23.89 141.819 24.24 140.119 24.24ZM140.119 20.4C141.319 20.4 142.299 20 143.059 19.2C143.839 18.38 144.229 17.29 144.229 15.93C144.229 14.57 143.839 13.49 143.059 12.69C142.299 11.87 141.319 11.46 140.119 11.46C138.919 11.46 137.929 11.87 137.149 12.69C136.369 13.49 135.979 14.57 135.979 15.93C135.979 17.29 136.369 18.38 137.149 19.2C137.929 20 138.919 20.4 140.119 20.4ZM156.568 9.99C157.128 9.21 157.878 8.62 158.818 8.22C159.778 7.82 160.878 7.62 162.118 7.62V11.94C161.598 11.9 161.248 11.88 161.068 11.88C159.728 11.88 158.678 12.26 157.918 13.02C157.158 13.76 156.778 14.88 156.778 16.38V24H152.098V7.86H156.568V9.99ZM180.564 15.99C180.564 16.05 180.534 16.47 180.474 17.25H168.264C168.484 18.25 169.004 19.04 169.824 19.62C170.644 20.2 171.664 20.49 172.884 20.49C173.724 20.49 174.464 20.37 175.104 20.13C175.764 19.87 176.374 19.47 176.934 18.93L179.424 21.63C177.904 23.37 175.684 24.24 172.764 24.24C170.944 24.24 169.334 23.89 167.934 23.19C166.534 22.47 165.454 21.48 164.694 20.22C163.934 18.96 163.554 17.53 163.554 15.93C163.554 14.35 163.924 12.93 164.664 11.67C165.424 10.39 166.454 9.4 167.754 8.7C169.074 7.98 170.544 7.62 172.164 7.62C173.744 7.62 175.174 7.96 176.454 8.64C177.734 9.32 178.734 10.3 179.454 11.58C180.194 12.84 180.564 14.31 180.564 15.99ZM172.194 11.16C171.134 11.16 170.244 11.46 169.524 12.06C168.804 12.66 168.364 13.48 168.204 14.52H176.154C175.994 13.5 175.554 12.69 174.834 12.09C174.114 11.47 173.234 11.16 172.194 11.16Z" fill="#7169CD"/>
</svg>
